<svg xmlns="http://www.w3.org/2000/svg" xmlns:xlink="http://www.w3.org/1999/xlink" viewBox="0 0 57.76 49.93"><defs><style>.cls-1{fill:url(#linear-gradient);}.cls-2{fill:url(#linear-gradient-2);}.cls-3{fill:url(#linear-gradient-3);}.cls-4{fill:url(#linear-gradient-4);}.cls-5{fill:url(#linear-gradient-5);}.cls-6{fill:url(#linear-gradient-6);}.cls-7{fill:url(#linear-gradient-7);}.cls-8{fill:url(#linear-gradient-8);}.cls-9{fill:url(#linear-gradient-9);}.cls-10{fill:url(#linear-gradient-10);}</style><linearGradient id="linear-gradient" x1="609.4" y1="0.48" x2="610.24" y2="0.48" gradientTransform="matrix(68.52, 0, 0, -68.52, -41758.66, 58.18)" gradientUnits="userSpaceOnUse"><stop offset="0" stop-color="#fab300"/><stop offset="1" stop-color="#f6db00"/></linearGradient><linearGradient id="linear-gradient-2" x1="604.9" y1="20.51" x2="605.75" y2="20.51" gradientTransform="matrix(23.76, 38.54, 38.54, -23.76, -15147.69, -22815.34)" xlink:href="#linear-gradient"/><linearGradient id="linear-gradient-3" x1="604.9" y1="20.48" x2="605.75" y2="20.48" gradientTransform="matrix(23.76, 38.54, 38.54, -23.76, -15138.91, -22820.06)" xlink:href="#linear-gradient"/><linearGradient id="linear-gradient-4" x1="604.9" y1="20.55" x2="605.75" y2="20.55" gradientTransform="matrix(23.76, 38.54, 38.54, -23.76, -15155.67, -22809.31)" xlink:href="#linear-gradient"/><linearGradient id="linear-gradient-5" x1="604.9" y1="20.45" x2="605.74" y2="20.45" gradientTransform="matrix(23.77, 38.54, 38.54, -23.77, -15135.12, -22825.7)" xlink:href="#linear-gradient"/><linearGradient id="linear-gradient-6" x1="604.9" y1="20.57" x2="605.74" y2="20.57" gradientTransform="matrix(23.77, 38.54, 38.54, -23.77, -15162.91, -22809.27)" xlink:href="#linear-gradient"/><linearGradient id="linear-gradient-7" x1="604.9" y1="20.45" x2="605.75" y2="20.45" gradientTransform="matrix(23.76, 38.54, 38.54, -23.76, -15131.81, -22824.73)" xlink:href="#linear-gradient"/><linearGradient id="linear-gradient-8" x1="604.9" y1="20.57" x2="605.75" y2="20.57" gradientTransform="matrix(23.77, 38.54, 38.54, -23.77, -15164.32, -22807.16)" xlink:href="#linear-gradient"/><linearGradient id="linear-gradient-9" x1="604.9" y1="20.5" x2="605.75" y2="20.5" gradientTransform="matrix(23.76, 38.54, 38.54, -23.76, -15143.2, -22816.38)" xlink:href="#linear-gradient"/><linearGradient id="linear-gradient-10" x1="604.9" y1="20.53" x2="605.75" y2="20.53" gradientTransform="matrix(23.77, 38.54, 38.54, -23.77, -15151.97, -22813.95)" xlink:href="#linear-gradient"/></defs><g id="Layer_2" data-name="Layer 2"><g id="Layer_1-2" data-name="Layer 1"><path class="cls-1" d="M47.23,49.51v-.42H10.54a9.73,9.73,0,0,1-9.7-9.7V10.54a9.73,9.73,0,0,1,9.7-9.7H47.23a9.73,9.73,0,0,1,9.69,9.7V39.39a9.73,9.73,0,0,1-9.69,9.7v.84A10.56,10.56,0,0,0,57.76,39.39V10.54A10.56,10.56,0,0,0,47.23,0H10.54A10.57,10.57,0,0,0,0,10.54V39.39A10.57,10.57,0,0,0,10.54,49.93H47.23Z"/><path class="cls-2" d="M28.24,14.31A10.66,10.66,0,1,0,38.9,25,10.65,10.65,0,0,0,28.24,14.31Z"/><path class="cls-3" d="M28.24,11.94a1.18,1.18,0,0,0,1.19-1.18V7.21a1.19,1.19,0,1,0-2.37,0v3.55A1.18,1.18,0,0,0,28.24,11.94Z"/><path class="cls-4" d="M28.24,38a1.18,1.18,0,0,0-1.18,1.18v3.55a1.19,1.19,0,1,0,2.37,0V39.17A1.18,1.18,0,0,0,28.24,38Z"/><path class="cls-5" d="M46,23.78H42.45a1.19,1.19,0,1,0,0,2.37H46a1.19,1.19,0,0,0,0-2.37Z"/><path class="cls-6" d="M15.22,25A1.18,1.18,0,0,0,14,23.78H10.49a1.19,1.19,0,1,0,0,2.37H14A1.18,1.18,0,0,0,15.22,25Z"/><path class="cls-7" d="M38.29,16.1a1.2,1.2,0,0,0,.84-.34l2.51-2.51A1.19,1.19,0,0,0,40,11.57l-2.51,2.51A1.18,1.18,0,0,0,38.29,16.1Z"/><path class="cls-8" d="M17.36,34.17l-2.51,2.51a1.19,1.19,0,0,0,.84,2,1.18,1.18,0,0,0,.83-.35L19,35.85a1.19,1.19,0,0,0-1.68-1.68Z"/><path class="cls-9" d="M39.13,34.17a1.19,1.19,0,0,0-1.68,1.68L40,38.36a1.19,1.19,0,1,0,1.68-1.68Z"/><path class="cls-10" d="M17.36,15.76a1.17,1.17,0,0,0,.84.34,1.19,1.19,0,0,0,.84-2l-2.52-2.51a1.18,1.18,0,0,0-1.67,0,1.2,1.2,0,0,0,0,1.68Z"/></g></g></svg>