<svg xmlns="http://www.w3.org/2000/svg" xmlns:xlink="http://www.w3.org/1999/xlink" viewBox="0 0 82.68 49.69"><defs><style>.cls-1{fill:url(#linear-gradient);}.cls-2{fill:#fff;}.cls-3{fill:url(#linear-gradient-2);}.cls-4{fill:url(#linear-gradient-3);}.cls-5{fill:url(#linear-gradient-4);}.cls-6{fill:url(#linear-gradient-5);}.cls-7{fill:url(#linear-gradient-6);}.cls-8{fill:url(#linear-gradient-7);}.cls-9{fill:#474749;}.cls-10{fill:url(#linear-gradient-8);}</style><linearGradient id="linear-gradient" x1="510.58" y1="-178.33" x2="511.42" y2="-178.33" gradientTransform="matrix(68.52, 0, 0, -68.52, -34962.07, -12194.94)" gradientUnits="userSpaceOnUse"><stop offset="0" stop-color="#68cfff"/><stop offset="1" stop-color="#59beff"/></linearGradient><linearGradient id="linear-gradient-2" x1="510.65" y1="-178.33" x2="511.49" y2="-178.33" gradientTransform="matrix(68.52, 0, 0, -68.52, -34992.1, -12194.94)" xlink:href="#linear-gradient"/><linearGradient id="linear-gradient-3" x1="518.87" y1="-179.7" x2="519.71" y2="-179.7" gradientTransform="matrix(36.74, 0, 0, -36.74, -19047.24, -6578.99)" gradientUnits="userSpaceOnUse"><stop offset="0" stop-color="#68cfff"/><stop offset="0.48" stop-color="#39aef0"/><stop offset="1" stop-color="#0087de"/></linearGradient><linearGradient id="linear-gradient-4" x1="535.62" y1="-182.53" x2="536.46" y2="-182.53" gradientTransform="matrix(18.89, 0, 0, -18.89, -10093.19, -3427.11)" xlink:href="#linear-gradient-3"/><linearGradient id="linear-gradient-5" x1="503.84" y1="-160.42" x2="504.68" y2="-160.42" gradientTransform="matrix(0, 40.14, 40.14, 0, 6454.69, -20218.26)" xlink:href="#linear-gradient-3"/><linearGradient id="linear-gradient-6" x1="503.45" y1="-162.75" x2="504.29" y2="-162.75" gradientTransform="matrix(0, 46.76, 46.76, 0, 7630.11, -23536.84)" xlink:href="#linear-gradient"/><linearGradient id="linear-gradient-7" x1="503.45" y1="-162.66" x2="504.29" y2="-162.66" gradientTransform="matrix(0, 46.76, 46.76, 0, 7630.11, -23536.84)" gradientUnits="userSpaceOnUse"><stop offset="0" stop-color="#9bdfff"/><stop offset="1" stop-color="#91d4ff"/></linearGradient><linearGradient id="linear-gradient-8" x1="530.27" y1="-181.66" x2="531.11" y2="-181.66" gradientTransform="matrix(22.12, 0, 0, -22.12, -11671.47, -3994.52)" xlink:href="#linear-gradient"/></defs><g id="Layer_2" data-name="Layer 2"><g id="Layer_1-2" data-name="Layer 1"><path class="cls-1" d="M72.19,0H35.68a10.48,10.48,0,0,0-2.93.42H47a10.06,10.06,0,0,1,2.87.42H72.19a9.66,9.66,0,0,1,9.65,9.65V39.2a9.66,9.66,0,0,1-9.65,9.65H49.87a9.72,9.72,0,0,1-2.87.42H32.75a10.13,10.13,0,0,0,2.93.42H72.19A10.51,10.51,0,0,0,82.68,39.2V10.49A10.52,10.52,0,0,0,72.19,0"/><path class="cls-2" d="M47,49.27H10.49A10.1,10.1,0,0,1,.42,39.2V10.49A10.1,10.1,0,0,1,10.49.42H47A10.1,10.1,0,0,1,57.07,10.49V39.2A10.1,10.1,0,0,1,47,49.27"/><path class="cls-3" d="M47,49.27v-.42H10.49A9.66,9.66,0,0,1,.84,39.2V10.49A9.66,9.66,0,0,1,10.49.84H47a9.66,9.66,0,0,1,9.65,9.65V39.2A9.66,9.66,0,0,1,47,48.85v.84A10.51,10.51,0,0,0,57.49,39.2V10.49A10.52,10.52,0,0,0,47,0H10.49A10.52,10.52,0,0,0,0,10.49V39.2A10.51,10.51,0,0,0,10.49,49.69H47Z"/><path class="cls-4" d="M33,8.5a15.37,15.37,0,0,0-11.44,5.08l1.14,2.28a13.06,13.06,0,0,1,9.14-5v1a1.17,1.17,0,0,0,2.33,0v-1A13.1,13.1,0,0,1,46.05,22.71h-1a1.17,1.17,0,1,0,0,2.33h1a13.11,13.11,0,0,1-11.87,11.9v-1a1.17,1.17,0,1,0-2.33,0v1a13,13,0,0,1-4.59-1.28,11.45,11.45,0,0,1-1.43,1.89A15.41,15.41,0,1,0,33,8.5"/><path class="cls-5" d="M40,16.4l-6.89,7.22h0l-.25,0L27,19.29A.87.87,0,1,0,26,20.68L31.72,25a1.31,1.31,0,0,0,2.61-.11v-.11l6.89-7.22a.87.87,0,0,0,0-1.23A.88.88,0,0,0,40,16.4Z"/><path class="cls-6" d="M22.25,40A10.42,10.42,0,0,1,9,25.69L18.32,7.07l1.3,2.59L12,25A10.41,10.41,0,0,0,21.27,40C21.6,40,21.92,40,22.25,40Z"/><path class="cls-7" d="M24.09,33a1.64,1.64,0,0,1-.37,0,1.48,1.48,0,0,1-1-1.81,6.17,6.17,0,0,0,.19-.74,5.57,5.57,0,0,0,0-1,5.36,5.36,0,0,0-.27-1,5.07,5.07,0,0,0-.37-.64,1.5,1.5,0,0,1,.53-2,1.48,1.48,0,0,1,.75-.2,1.45,1.45,0,0,1,1.27.73,6.54,6.54,0,0,1,.74,5.62A1.51,1.51,0,0,1,24.09,33M19.62,9.66,12,25A10.41,10.41,0,0,0,21.27,40c.33,0,.65,0,1,0a10.4,10.4,0,0,0,3.59-2.44,11.45,11.45,0,0,0,1.43-1.89,10.32,10.32,0,0,0,.36-10l-4.91-9.83-1.14-2.28-2-3.92"/><path class="cls-8" d="M23.52,25.55a1.48,1.48,0,0,0-.75.2,1.5,1.5,0,0,0-.53,2,5.07,5.07,0,0,1,.37.64,5.36,5.36,0,0,1,.27,1,5.57,5.57,0,0,1,0,1,6.17,6.17,0,0,1-.19.74,1.48,1.48,0,0,0,1,1.81,1.64,1.64,0,0,0,.37,0,1.51,1.51,0,0,0,1.44-1.08,6.54,6.54,0,0,0-.74-5.62,1.45,1.45,0,0,0-1.27-.73"/><path class="cls-9" d="M66.14,33.42v-1.9a7.86,7.86,0,0,0,1.48-.18,2,2,0,0,0,1.1-.74,2.67,2.67,0,0,0,.44-1,2.86,2.86,0,0,0,.09-.57h1.88V43.23H68.82V33.42Z"/><path class="cls-9" d="M64.54,20.84V6.38H67v5.51h4.51V6.38h2.41V20.84H71.47V14.38H67v6.46Z"/><path class="cls-10" d="M60.83,24.92H78.56a.42.42,0,0,0,0-.84H60.83a.42.42,0,0,0,0,.84"/></g></g></svg>